<svg xmlns="http://www.w3.org/2000/svg" width="24" height="18" viewBox="0 0 24 18"><defs><style>.a{fill:#4097d8;}</style></defs><path class="a" d="M21.75,59.882H2.25A2.252,2.252,0,0,0,0,62.132v13.5a2.252,2.252,0,0,0,2.25,2.25h19.5A2.252,2.252,0,0,0,24,75.632v-13.5a2.252,2.252,0,0,0-2.25-2.25Zm0,1.5a.746.746,0,0,1,.287.058L12,70.14,1.962,61.44a.747.747,0,0,1,.287-.058Zm0,15H2.25a.751.751,0,0,1-.75-.75V63.025L11.509,71.7a.751.751,0,0,0,.983,0L22.5,63.025V75.632A.751.751,0,0,1,21.75,76.382Z" transform="translate(0 -59.882)"/></svg>