<svg xmlns="http://www.w3.org/2000/svg" xmlns:xlink="http://www.w3.org/1999/xlink" width="773.224" height="329.962" viewBox="0 0 773.224 329.962"><defs><style>.a{fill:#0075bd;}.b,.bl,.d,.s{fill:none;}.c{fill:#4eafe5;}.d,.s{stroke:#4eafe5;}.e{fill:#2b8dd6;}.f{clip-path:url(#a);}.ac,.g{opacity:0.5;}.g{mix-blend-mode:lighten;isolation:isolate;}.h{clip-path:url(#b);}.i{fill:#073da6;}.j{fill:#02a0f8;}.k{fill:#0479d8;}.l{fill:#219cf4;}.m{fill:#4a96ff;}.n{fill:#1d6aff;}.o{fill:#528dff;}.p{fill:#1b96fa;}.q{clip-path:url(#c);}.r{clip-path:url(#d);}.bl,.s{stroke-miterlimit:10;}.s{stroke-width:2px;}.t{clip-path:url(#e);}.u{fill:#5cbeb6;}.v{opacity:0.4;}.w{clip-path:url(#f);}.x{clip-path:url(#g);}.y{fill:#c7c9ca;}.z{fill:#caeafc;}.aa{fill:#151f55;}.ab{fill:#1a9288;}.ad{clip-path:url(#h);}.ae{clip-path:url(#i);}.af{fill:#3691c4;}.ag{fill:#edf3fb;}.ah{clip-path:url(#j);}.ai{clip-path:url(#k);}.aj{clip-path:url(#l);}.ak{clip-path:url(#m);}.al{fill:#eeeeef;}.am{fill:#c7c7c7;}.an{clip-path:url(#n);}.ao{clip-path:url(#o);}.ap{fill:#6f6768;}.aq{clip-path:url(#p);}.ar{clip-path:url(#q);}.as{clip-path:url(#r);}.at{clip-path:url(#s);}.au{fill:#6e6e72;}.av{fill:#474749;}.aw{fill:#e0e0e1;}.ax{fill:#57c9f3;}.ay{fill:#3695eb;}.az{opacity:0.6;}.ba{clip-path:url(#t);}.bb{clip-path:url(#u);}.bc{clip-path:url(#v);}.bd{clip-path:url(#w);}.be{clip-path:url(#x);}.bf{clip-path:url(#y);}.bg{clip-path:url(#z);}.bh{clip-path:url(#aa);}.bi{clip-path:url(#ab);}.bj{clip-path:url(#ac);}.bk{clip-path:url(#ad);}.bl{stroke:#3695eb;stroke-width:0.658px;}.bm{fill:#fff;}.bn{fill:#d9254c;}.bo{fill:#165884;}.bp{fill:#75493e;}.bq{fill:#86c8d5;}.br{fill:#228c9a;}.bs{clip-path:url(#af);}.bt{clip-path:url(#ag);}.bu{fill:#1f75a5;}.bv{fill:#004276;}.bw{fill:#0db5b8;}.bx{fill:#e1e1e2;}.by{clip-path:url(#ah);}.bz{clip-path:url(#ai);}.ca{fill:#afb0b4;}.cb{clip-path:url(#aj);}.cc{clip-path:url(#ak);}.cd{fill:#aeaeae;}.ce{clip-path:url(#al);}.cf{clip-path:url(#an);}.cg{clip-path:url(#ao);}.ch{clip-path:url(#ap);}.ci{clip-path:url(#ar);}.cj{clip-path:url(#as);}.ck{clip-path:url(#at);}.cl{clip-path:url(#au);}.cm{clip-path:url(#av);}.cn{clip-path:url(#aw);}.co{clip-path:url(#ax);}.cp{clip-path:url(#ay);}</style><clipPath id="a"><rect class="a" width="773.224" height="329.961" transform="translate(163 3106.265)"/></clipPath><clipPath id="b"><rect class="b" width="1043.52" height="771.616"/></clipPath><clipPath id="c"><rect class="c" width="61.448" height="61.449" transform="translate(0 0)"/></clipPath><clipPath id="d"><rect class="d" width="56.568" height="56.566"/></clipPath><clipPath id="e"><rect class="e" width="773.224" height="328.946" transform="translate(163 3107.001)"/></clipPath><clipPath id="f"><rect class="b" width="23.621" height="71.822"/></clipPath><clipPath id="g"><rect class="b" width="23.618" height="71.822"/></clipPath><clipPath id="h"><rect class="b" width="40.102" height="36.417"/></clipPath><clipPath id="i"><rect class="b" width="40.095" height="36.417"/></clipPath><clipPath id="j"><rect class="b" width="0.181" height="0.36"/></clipPath><clipPath id="k"><rect class="b" width="0.178" height="0.359"/></clipPath><clipPath id="l"><rect class="b" width="92.805" height="220.386"/></clipPath><clipPath id="m"><rect class="b" width="92.797" height="220.377"/></clipPath><clipPath id="n"><rect class="b" width="11.99" height="3.821"/></clipPath><clipPath id="o"><rect class="b" width="11.99" height="3.819"/></clipPath><clipPath id="p"><rect class="b" width="9.849" height="3.171"/></clipPath><clipPath id="q"><rect class="b" width="9.846" height="3.17"/></clipPath><clipPath id="r"><rect class="b" width="17.042" height="21.464"/></clipPath><clipPath id="s"><rect class="b" width="17.036" height="21.464"/></clipPath><clipPath id="t"><rect class="b" width="39.693" height="20.69"/></clipPath><clipPath id="u"><rect class="b" width="39.693" height="20.683"/></clipPath><clipPath id="v"><rect class="b" width="69.365" height="25.433"/></clipPath><clipPath id="w"><rect class="b" width="69.364" height="25.433"/></clipPath><clipPath id="x"><rect class="b" width="22.44" height="66.3"/></clipPath><clipPath id="y"><rect class="b" width="22.436" height="66.3"/></clipPath><clipPath id="z"><rect class="b" width="116.744" height="298.204"/></clipPath><clipPath id="aa"><rect class="b" width="116.744" height="298.203"/></clipPath><clipPath id="ab"><rect class="b" width="9.854" height="10.746"/></clipPath><clipPath id="ac"><rect class="b" width="9.851" height="10.746"/></clipPath><clipPath id="ad"><rect class="b" width="8.1" height="8.832"/></clipPath><clipPath id="af"><rect class="b" width="56.305" height="27.934"/></clipPath><clipPath id="ag"><rect class="b" width="56.305" height="27.93"/></clipPath><clipPath id="ah"><rect class="b" width="46.129" height="47.35"/></clipPath><clipPath id="ai"><rect class="b" width="46.128" height="47.35"/></clipPath><clipPath id="aj"><rect class="b" width="46.979" height="46.28"/></clipPath><clipPath id="ak"><rect class="b" width="46.975" height="46.272"/></clipPath><clipPath id="al"><rect class="b" width="20.878" height="84.659"/></clipPath><clipPath id="an"><rect class="b" width="48.31" height="16.347"/></clipPath><clipPath id="ao"><rect class="b" width="48.306" height="16.348"/></clipPath><clipPath id="ap"><rect class="b" width="13.643" height="2.274"/></clipPath><clipPath id="ar"><rect class="b" width="11.248" height="1.442"/></clipPath><clipPath id="as"><rect class="b" width="11.244" height="1.44"/></clipPath><clipPath id="at"><rect class="b" width="143.704" height="103.359"/></clipPath><clipPath id="au"><rect class="b" width="143.701" height="103.358"/></clipPath><clipPath id="av"><rect class="b" width="138.163" height="101.233"/></clipPath><clipPath id="aw"><rect class="b" width="138.163" height="101.227"/></clipPath><clipPath id="ax"><rect class="b" width="23.995" height="75.707"/></clipPath><clipPath id="ay"><rect class="b" width="23.992" height="75.702"/></clipPath></defs><g transform="translate(-163 -3047)"><g class="f" transform="translate(0 -59.265)"><g class="g" transform="translate(934.615 2584.505) rotate(90)"><g class="h"><path class="i" d="M93.018,282.235,0,335.94v26.52H193.3V340.133Z" transform="translate(0 409.155)"/><path class="j" d="M288.922,362.46V340.134l-100.283-57.9-100.283,57.9V362.46Z" transform="translate(128.089 409.156)"/><path class="k" d="M380.244,362.46V340.134l-100.283-57.9-100.283,57.9V362.46Z" transform="translate(260.478 409.156)"/><path class="l" d="M471.565,362.46V340.134l-100.283-57.9L271,340.134V362.46Z" transform="translate(392.866 409.156)"/><path class="j" d="M518.265,362.46V314.37L462.6,282.235l-100.283,57.9V362.46Z" transform="translate(525.254 409.156)"/><path class="i" d="M243.787,374.756v-115.8L143.5,201.061,43.22,258.959v115.8l100.283,57.9Z" transform="translate(62.656 291.477)"/><path class="k" d="M335.108,374.756v-115.8l-100.283-57.9-100.283,57.9v115.8l100.283,57.9Z" transform="translate(195.044 291.477)"/><path class="m" d="M426.429,374.756v-115.8l-100.283-57.9-100.283,57.9v115.8l100.283,57.9Z" transform="translate(327.433 291.477)"/><path class="n" d="M517.751,374.756v-115.8l-100.283-57.9-100.283,57.9v115.8l100.283,57.9Z" transform="translate(459.821 291.477)"/><path class="j" d="M451.311,214.607,408.5,239.32v115.8l42.806,24.713Z" transform="translate(592.208 311.115)"/><path class="i" d="M380.244,295.331v-115.8l-100.283-57.9-100.283,57.9v115.8l100.283,57.9Z" transform="translate(260.478 176.335)"/><path class="j" d="M471.565,295.331v-115.8l-100.283-57.9L271,179.534v115.8l100.283,57.9Z" transform="translate(392.866 176.335)"/><path class="o" d="M518.265,153.771,462.6,121.636l-100.283,57.9v115.8L462.6,353.23l55.662-32.138Z" transform="translate(525.254 176.335)"/><path class="j" d="M426.429,214.157V98.36l-100.283-57.9L225.863,98.36v115.8l100.283,57.9Z" transform="translate(327.433 58.656)"/><path class="p" d="M517.751,214.157V98.36l-100.283-57.9L317.184,98.36v115.8l100.283,57.9Z" transform="translate(459.821 58.656)"/><path class="j" d="M451.311,54.007,408.5,78.72v115.8l42.806,24.713Z" transform="translate(592.208 78.294)"/><path class="j" d="M179.677,0V78.246l100.283,57.9,100.283-57.9V0Z" transform="translate(260.477 0)"/><path class="o" d="M271,0V78.246l100.283,57.9,100.283-57.9V0Z" transform="translate(392.866 0)"/><path class="o" d="M518.265,0H362.32V78.246l100.283,57.9,55.662-32.135Z" transform="translate(525.254 0)"/></g></g></g><g transform="translate(284 3136.441)"><path class="c" d="M47.969,25.1H35.994V13.128H25.06V25.1H13.085V36.035H25.06V48.01H35.994V36.035H47.969Z"/><g class="q"><path class="c" d="M30.725,61.448A30.724,30.724,0,1,1,61.449,30.724,30.76,30.76,0,0,1,30.725,61.448m0-58.67A27.947,27.947,0,1,0,58.67,30.724,27.978,27.978,0,0,0,30.725,2.778"/></g></g><g transform="translate(853.715 3287.021)"><g class="r" transform="translate(0 0)"><path class="s" d="M53.608,19.059H35.549V1H19.06V19.059H1V35.546H19.06V53.606H35.549V35.546H53.608Z" transform="translate(0.981 0.979)"/></g></g><path class="c" d="M115.193,32.393a5.495,5.495,0,0,0-7.7-.913l-1.1.865-1.1-.861a5.4,5.4,0,0,0-3.375-1.164,5.481,5.481,0,0,0-3.33,9.844l7.829,6.13,7.872-6.2a5.5,5.5,0,0,0,.908-7.7" transform="translate(97.904 3256.715)"/><g class="t" transform="translate(0 -58.984)"><g transform="translate(-404.905 -7.76)"><g transform="translate(652.49 3086.198)"><path class="u" d="M379.351,141.177s8.137,4.809,9.908,7.651c9.961,11.885,25.282,42.972,25.282,42.972l-30.009,17.227-8.275-22.984Z" transform="translate(109.343 41.027)"/><g class="v" transform="translate(495.39 193.632)"><g class="w"><g transform="translate(0.001)"><g class="x"><path class="y" d="M400.688,221.854s4.142-24.412.423-34.249c-4.247-11.236-17.27-37.571-17.27-37.571s16.935,23.463,23.033,44.929c2.1,7.4-2.128,25.159-2.128,25.159Z" transform="translate(-383.843 -150.031)"/></g></g></g></g><path class="z" d="M357.372,131.048c-38.345,11.106-48.67,23.39-48.67,23.39L336.347,225.6s5.957,27.588-1.208,40.908c-25.744,22.582-4.445,58.217-4.445,58.217,17.9,12.005,55.85-6.177,55.85-6.177a68.605,68.605,0,0,0,31.514-22.691s-7.821-27.565-3.736-46.858c8.475-27.214,9.532-50.168,2.752-69.8-7.522-13.311-24.352-47.826-59.7-48.143" transform="translate(89.71 38.083)"/><path class="aa" d="M322.212,106.57l.133-.089c7.935-5.235,17.9-4.178,22.3,2.389,4.335,6.471,1.646,15.908-6,21.3-.137.108-.284.208-.436.307-7.97,5.334-18.01,4.307-22.429-2.287s-1.549-16.284,6.425-21.618" transform="translate(91.166 29.978)"/><path class="ab" d="M323.1,105.09c7.936-5.235,14.941-2.552,19.338,4.015,4.334,6.474,1.644,15.909-6,21.3-15.38-4.841-17.271-14.033-13.34-25.311" transform="translate(93.38 29.736)"/><path class="z" d="M333.287,111.714l-1.742,35.243,41.644,2.243L372.057,135l-.937-11.59-.237-.607-9.61-14.563Z" transform="translate(96.349 31.455)"/><g class="ac" transform="translate(428.572 139.695)"><g class="ad"><g transform="translate(0.008 -0.001)"><g class="ae"><path class="af" d="M333.129,111.714l-1.058,21.321c10.411,12.036,25.378,16.166,40.1,5.427l-1.212-15.051-.237-.607-9.606-14.563Z" transform="translate(-332.079 -108.238)"/></g></g></g></g><path class="ag" d="M358.308,517.835l-1.214-86.318a29.59,29.59,0,0,0,6.457-13.781c2.421-14.384,5.335-29.222,3.988-43.847a41.6,41.6,0,0,0-8.469-22.022c1.686-9.177,3.375-18.358,4.917-27.557,2.264-13.5,3.267-27.161,6.467-40.493a36.685,36.685,0,0,0,.7-13.6l9.569,22.4.417,4.5,12.276,130.882-10.409,117-2.123,24.063c-9.647,1.289-12.176-.086-21.859.545l-.327-24.027Z" transform="translate(103.774 78.527)"/><path class="ag" d="M313.541,526.018l-1.22-86.314a29.6,29.6,0,0,0,6.457-13.78c2.42-14.385,5.335-29.223,3.987-43.847a41.586,41.586,0,0,0-8.469-22.023c1.686-9.176,3.376-18.356,4.916-27.556,2.266-13.5,3.267-27.162,6.47-40.494a36.663,36.663,0,0,0,.7-13.6l9.569,22.4.418,4.5,12.275,130.884-10.407,117-2.123,24.063c-9.647,1.288-12.176-.088-21.858.543l-.327-24.027Z" transform="translate(90.762 80.906)"/><path class="ab" d="M310.54,562.159l35.27,1,22.313-200.04,1.186,194.614,38.629-2.758,8.9-294.22-103.749,20.4-.632,65.019Z" transform="translate(90.244 75.776)"/><path class="u" d="M424.313,357.5c-1.71.341-3.4.685-5.117,1.008-.7.126-5.117.848-6.425,1.081-1.2.163-2.4.327-2.734.359-.092.019-.2.019-.289.037-2.773.359-5.51.7-8.283.99a379.563,379.563,0,0,1-64.153,1.153c-4.176-.268-8.515-.413-12.73-.9-.755-.11-1.386-.179-1.873-.252-.252-.035-.487-.071-.738-.108-.036,0-.07-.019-.108-.019-.054,0-.108-.018-.145-.018a.071.071,0,0,0-.053-.017c-.792-.126-1.513-.236-1.928-.288-2.843-.36-5.671-.756-8.514-1.19-.829-.125-1.658-.25-2.484-.4.574-15.34.918-30,.792-40.818-.47-37.217,10.837-54.018,10.837-54.018s6.736-1.171,16.659-2.628c1.567-.217,3.2-.45,4.9-.684,1.1-.146,2.215-.289,3.367-.452,27.079-3.474,67.268-6.822,72.76,3.241.108.218.2.416.288.614,2.069,5.436,4.3,50.649,5.978,93.3" transform="translate(89.722 74.652)"/><path class="ab" d="M335.463,143.566s25.208,15.752,46.819,1.076.6,51.193.6,51.193Z" transform="translate(97.488 41.414)"/><path class="u" d="M321.775,299.609c-.749,10.686-1.314,17.085-1.314,17.085s4.548-.3,11.7-.871c4.8-.369,10.76-.861,17.32-1.445,29.364-2.673,70.412-7.422,70.071-13.065-.031-.718-.083-1.464-.1-2.229-.86-18.1-.076-51.431,1.382-59.093,2.324-12.7,5.928-26.692,4.778-43.56-.263-11.107-24.734-52.507-25.313-53.257-.013,0-.016-.032-.016-.032-2.983-1.5-6.12-2.895-8.79-4.041-3.6-1.555-10.606-4.322-10.814-4.349a22.184,22.184,0,0,1,6.453,11.07c3.25,11.715.805,27.68-1.381,28.543-5.6,1.981-22.9-15.352-36.217-28.347-5.968-5.823-10.116-10.1-10.116-10.1s-4.615,1.48-10.526,4.029c-6.262,2.692-13.957,6.586-19.066,11.148l-.03.035c-2.682,2.389-4.628,4.948-5.281,7.64-3.5,6.262,8.793,18.82,15.174,37.44a84.032,84.032,0,0,1,3.634,15.551c.586,3.951.97,8.049,1.216,12.329a.4.4,0,0,1,.018.141c.3,5.227.4,10.739.474,16.614-.912,23.809-2.26,44.892-3.252,58.769" transform="translate(88.315 39.159)"/><g class="v" transform="translate(428.862 216.886)"><g class="ah"><g transform="translate(0.003 0.001)"><g class="ai"><path class="y" d="M332.476,168.05l-.181.359c.037-.234.108-.359.181-.359" transform="translate(-332.298 -168.051)"/></g></g></g></g><g class="v" transform="translate(398.446 217.246)"><g class="aj"><g transform="translate(0.006)"><g class="ak"><path class="y" d="M401.463,386.721a379.827,379.827,0,0,1-64.153,1.153c-4.178-.271-8.514-.416-12.729-.9-.756-.108-1.389-.181-1.874-.252-.25-.037-.467-.072-.653-.089-.037,0-.053-.018-.09-.018s-.072-.019-.108-.019c-.054,0-.108-.018-.145-.018h.089c-.052,0-.108-.019-.145-.019-.792-.125-1.511-.234-1.927-.288-2.843-.359-5.671-.756-8.518-1.187-.826-.128-1.656-.253-2.483-.4.576-15.343.918-30,.791-40.819-.466-37.217,10.841-54.017,10.841-54.017.991-13.882,2.34-34.951,3.258-58.769-.071-5.87-.178-11.381-.467-16.62a.283.283,0,0,0-.018-.126c-.252-4.284-.63-8.384-1.225-12.333l17.239-33.669c-.629,3.439-.183,31.733,1.567,64.623,2.069,38.854-18.269,112.9-4.765,130.86,17.586,23.391,67.673,22.682,65.516,22.907" transform="translate(-308.733 -168.328)"/></g></g></g></g><path class="al" d="M434.271,192.076l-6.816-.163.108-.919c.239-2.069-.847-3.81-2.428-3.871s-3.108,1.608-3.337,3.713l-.1.934-7.393-.181c-1.927-.047-3.693,1.9-3.921,4.334l-.808,8.492,26.2-.39,1-7.815c.287-2.239-.825-4.092-2.505-4.138m-10.944-1.014a1.789,1.789,0,0,1,1.562-1.754c.75.025,1.266.838,1.154,1.827a2.1,2.1,0,0,1-.218.736,1.541,1.541,0,0,1-1.342,1,1.226,1.226,0,0,1-1.11-1.06,1.873,1.873,0,0,1-.05-.747" transform="translate(119.027 54.379)"/><path class="ab" d="M443.858,212.737s-12.274,31.076-12.232,30.923,9.234,4.489,13.91-7.367c6.152-15.606-1.678-23.557-1.678-23.557" transform="translate(125.433 61.822)"/><path class="am" d="M386.63,295.836l47.2-2.132a7.022,7.022,0,0,0,6.452-5.148l22.756-82.616a7.02,7.02,0,0,0-4.908-8.632,6.819,6.819,0,0,0-.964-.194l-53.614-.689a7.02,7.02,0,0,0-7.8,5.684l-16.34,85.437a7.017,7.017,0,0,0,7.218,8.291" transform="translate(110.225 57.065)"/><path class="z" d="M453.128,214.048c-2.362-5.13-3.126-3.971-3.823-5.3-2.017-2.63-8.71-6.487-10.773-6.751-2.808-1.133-6.356-.8-3.905,2.354,4.464,3.861,7.991,5.89,10,7.731a6.515,6.515,0,0,1,1.861,4.709,27.893,27.893,0,0,0-2.715-3.934c-1.354-1.524-14.583-7.576-16.5-7.129s-1.22,4.113,1.978,5.444c0,0-3.239-1.014-4.215-.288s-.7,2.035,3.322,4.272c0,0-2.841.108-3.21,1.358-.36,2.714,8.75,6.267,9.224,6.968s-4.44,11.128,5.02,19.054c0,0,15.118-11.7,13.732-28.493" transform="translate(123.381 58.529)"/><g class="ac" transform="translate(552.75 269.631)"><g class="an"><g transform="translate(0 0.003)"><g class="ao"><path class="ap" d="M440.275,212.7c-.068.218-2.806-.443-6.117-1.475s-5.938-2.046-5.87-2.262,2.806.441,6.118,1.471,5.938,2.047,5.87,2.265" transform="translate(-428.287 -208.921)"/></g></g></g></g><g class="ac" transform="translate(551.902 273.877)"><g class="aq"><g transform="translate(0.003 0)"><g class="ar"><path class="ap" d="M437.474,215.327c-.068.218-2.327-.293-5.045-1.14s-4.866-1.711-4.8-1.928,2.326.29,5.045,1.137,4.867,1.713,4.8,1.931" transform="translate(-427.632 -212.208)"/></g></g></g></g><path class="ag" d="M312.321,305.881s8.429,3.611,10.979,5.712,3.139,9.6,3.139,9.6,1.742,3.458,2.789,4.246-4.573,3.867-7.127,0-9.78-19.562-9.78-19.562" transform="translate(90.762 88.891)"/><g class="ac" transform="translate(403.084 394.772)"><g class="as"><g transform="translate(0.005 -0.001)"><g class="at"><path class="ap" d="M312.321,305.881s7.469,6.533,9.832,13.674c2.435,7.367,6.023,5.1,7.078,5.88s-4.573,3.867-7.128,0-9.781-19.554-9.781-19.554" transform="translate(-312.326 -305.88)"/></g></g></g></g><path class="ag" d="M329.463,333.885c.188-8.77-10.344-27.73-13.311-28.744-.805.483-18.088,2.677-18.088,2.677-.951,10.364-.163,21.659,4.338,28.667.843,1.316,2.422,4.447,3.825,4.726,3.6.716,2.53-4.234,3.447-3.375,6.9,11.825,10.722-.449,10.722-.449,2.1,4.675,8.977.737,9.067-3.5" transform="translate(86.516 88.675)"/><path class="ag" d="M331.511,204.2C315.629,256.451,317.9,347.181,317.9,347.181c-.412.252-.809.485-1.222.7a27,27,0,0,1-18.365,2.4c-13.36-97.345,2.682-180.967,2.682-180.967s16.313-13.972,27.316,2.287a42.86,42.86,0,0,1,3.114,8.336c1.96,7.347,2.661,16.441.09,24.272" transform="translate(85.147 47.581)"/><path class="ab" d="M331.512,204.2C315.631,256.453,319.9,345.729,319.9,345.729c.444,5.091-20.917,8.344-21.588,4.549-13.362-97.34,2.682-180.971,2.682-180.971s16.313-13.972,27.314,2.287a42.779,42.779,0,0,1,3.116,8.336c1.96,7.347,2.661,16.441.089,24.272" transform="translate(85.146 47.579)"/><path class="u" d="M318.3,144.951s-9.772,6.006-14.762,13.342c-5.346,7.858-12.285,25.588-14.722,58.373,15.34,7.554,33.089,11.683,45.956,11.029,0,0,.721-4.3,2.7-24.564,3.851-39.415-19.176-58.182-19.176-58.182" transform="translate(83.933 42.124)"/><path class="au" d="M365.811,214.725a15.763,15.763,0,0,1-4.331-.367c-7.957-1.775-16.233-9.463-24.608-22.85a148.489,148.489,0,0,1-10.172-19.5l1.355-.416c.156.377,15.68,37.528,33.785,41.567a14.6,14.6,0,0,0,12.4-3.048l.954.929a17,17,0,0,1-9.387,3.69" transform="translate(94.942 49.866)"/><path class="au" d="M347.313,219.392a28.1,28.1,0,0,1-6.941-.574l.32-1.207c6.5,1.27,11.268.427,14.193-2.515,11.039-11.106-5.988-48.15-6.163-48.524l1.337-.459a145.18,145.18,0,0,1,7.347,20.349c3.957,14.6,3.483,24.5-1.427,29.44a12.764,12.764,0,0,1-8.665,3.491" transform="translate(98.914 48.273)"/><path class="av" d="M328.158,178.128a1.315,1.315,0,0,1-1.239-.632c-.218-.408-5.375-10.082-1.942-17.138,1.382-2.841,3.947-4.851,7.621-5.978a14.8,14.8,0,0,1,10.481.436c8.059,3.495,11.675,13.511,11.826,13.936a1.081,1.081,0,0,1-.73,1.341.932.932,0,0,1-.119.027,1.329,1.329,0,0,1-1.589-.73c-.034-.094-3.455-9.55-10.54-12.617a11.96,11.96,0,0,0-8.474-.328,9.342,9.342,0,0,0-6.125,4.76c-3,6.173,1.849,15.274,1.9,15.366a1.038,1.038,0,0,1-.458,1.393,1.135,1.135,0,0,1-.159.065,1.448,1.448,0,0,1-.457.1" transform="translate(94.099 44.644)"/><path class="aw" d="M370.715,199.295c.857,1.235-.133,3.1-2.211,4.166s-4.454.928-5.311-.31.133-3.1,2.211-4.164,4.454-.928,5.311.307" transform="translate(105.457 57.619)"/><path class="aw" d="M343.539,207.1c-.405,1.4-2.635,2.119-4.982,1.615s-3.92-2.044-3.513-3.439,2.634-2.117,4.982-1.612,3.92,2.042,3.513,3.437" transform="translate(97.347 59.14)"/><path class="av" d="M331.79,162.089a1.282,1.282,0,0,1-1.3-.763c-.239-.653-8.453-22.991,2.206-27.815.188-.084.372,2.45.372,2.45-8.364,5.009-.2,24.564-.147,24.71a1.075,1.075,0,0,1-.71,1.344.785.785,0,0,1-.124.03,1.476,1.476,0,0,1-.3.049" transform="translate(95.1 38.798)"/><rect class="au" width="1.769" height="8.391" transform="translate(489.04 271.593) rotate(-5.569)"/><path class="aw" d="M375.04,222.2a4.766,4.766,0,1,1,.005,0" transform="translate(108.985 62.361)"/><path class="au" d="M380.2,220.068a4.711,4.711,0,1,0,3.323-4.04,4.714,4.714,0,0,0-3.323,4.04" transform="translate(110.48 62.721)"/><path class="av" d="M383.19,234.819c-.163-1.91-1.6-17.126-2.815-46.774-1.005-24.56-13.033-45.924-16.9-52.232l-.263-3.319c-.018-1.567,17.614,15.851,19.708,55.448,1.573,29.688,2.94,46.361,2.94,46.524-.639.888-2.673.352-2.673.352" transform="translate(105.552 38.475)"/><path class="z" d="M365.743,104.582s5.63-13.174,14.2-9.978-1.023,25.073-14.2,20.339Z" transform="translate(106.288 27.347)"/><path class="aa" d="M376.888,99.18c-6.126-.083-9.637,5.423-9.784,5.662a.513.513,0,0,0,.871.542,13.321,13.321,0,0,1,3.667-3.6c2.114,1.378,1.029,4.952,1.016,4.988a.514.514,0,0,0,.98.314c.054-.174,1.2-3.932-1.026-5.852a8.97,8.97,0,0,1,4.112-1.031h.157a.506.506,0,0,0,.52-.493V99.7a.513.513,0,0,0-.5-.52" transform="translate(106.66 28.822)"/><path class="z" d="M330.347,104.407s-5.63-13.175-14.2-9.979,1.023,25.074,14.2,20.339Z" transform="translate(90.929 27.296)"/><path class="aa" d="M317.6,99.007c6.126-.083,9.637,5.423,9.784,5.662a.514.514,0,1,1-.852.576l-.019-.031a13.3,13.3,0,0,0-3.667-3.6c-2.111,1.378-1.026,4.952-1.016,4.988a.509.509,0,0,1-.967.319v0c-.057-.174-1.2-3.932,1.026-5.852a8.969,8.969,0,0,0-4.111-1.031h-.159a.5.5,0,0,1-.519-.488v-.015a.511.511,0,0,1,.5-.52" transform="translate(92.152 28.772)"/><path class="z" d="M383.208,107.074c0,24.089-9.572,43.279-25.825,43.279s-33.025-19.19-33.025-43.279,13.176-43.615,29.426-43.615,29.425,19.527,29.425,43.615" transform="translate(94.26 18.441)"/><path class="aa" d="M351.777,115.28a1.814,1.814,0,0,0,.187-.009c.771-.066,2.579-.721,2.77-5.347A39.44,39.44,0,0,0,353.768,98a.511.511,0,0,0-.98.294,39.33,39.33,0,0,1,.92,11.591c-.128,3.116-1.03,4.3-1.837,4.37-1.177.119-2.955-1.9-3.7-5.319a.513.513,0,0,0-1,.218c.79,3.6,2.706,6.127,4.61,6.127" transform="translate(100.889 28.374)"/><path class="aa" d="M353.226,118.834c-7.782,0-12.463-5.973-12.657-6.227a.511.511,0,0,1,.811-.622c.045.057,4.58,5.826,11.848,5.826a13.068,13.068,0,0,0,10.762-5.778.512.512,0,1,1,.879.524,13.906,13.906,0,0,1-11.641,6.277" transform="translate(98.944 32.485)"/><path class="aa" d="M364.91,89.574a7.6,7.6,0,0,0-5.972.023,1.535,1.535,0,0,1-1.027-2.894,10.529,10.529,0,0,1,8.364.121c3.846,1.869,5.139,7.767,4.335,8.037-.161.054-3.048-4.01-5.7-5.286" transform="translate(103.721 24.962)"/><path class="aa" d="M332.76,94.938c-.163,0,0-6.245,3.846-8.117a10.535,10.535,0,0,1,8.364-.119,1.536,1.536,0,0,1-1.031,2.894,7.589,7.589,0,0,0-5.988-.012c-2.657,1.291-4.547,5.355-5.187,5.355" transform="translate(96.69 24.962)"/><path class="aa" d="M341.7,93.788l-4.969.181s.761,1.511,3.691,1.837a20.761,20.761,0,0,0-.556,5.062c0,3.909.822,7.078,1.835,7.078s1.834-3.17,1.834-7.078-.822-7.076-1.834-7.076" transform="translate(97.857 27.255)"/><path class="aa" d="M365.023,93.969l-4.969-.181c-1.013,0-1.833,3.167-1.833,7.078s.82,7.076,1.833,7.076,1.834-3.168,1.834-7.076a20.749,20.749,0,0,0-.554-5.062c2.924-.328,3.69-1.835,3.69-1.835" transform="translate(104.102 27.255)"/><path class="aa" d="M367.827,77.067s-9.332,8.865-28.238,13.284c-16.277,3.9-12.479,24.106-12.479,24.106s-15.027-11.313-9.756-33c6.382-24.8,38.789-38.181,55.941-21.074,0,0,10.575-1.354,14.892,11.177,12.679,30.938-2.759,42.9-2.759,42.9s.139-19.461-2.773-23.205c-6.237-8.012-14.27-8.09-14.827-14.189" transform="translate(91.899 15.314)"/><path class="z" d="M102.806,203.84s-21.32,67.215-22.469,147.808a22.084,22.084,0,0,0,16.271-.1s9.332-73.863,28.655-114.292c4.367-8.643,3.6-20.239,1.407-26.842-19.843-32.2-23.863-6.573-23.863-6.573" transform="translate(23.347 56.427)"/><path class="ax" d="M123.189,152.93s-8.033,4.842-9.763,7.674S86.582,218.81,86.582,218.81l28.79,23.1,11.268-44.488Z" transform="translate(25.162 44.442)"/><rect class="ay" width="11.896" height="50.078" transform="translate(104.797 270.661) rotate(-66.305)"/><path class="ag" d="M170.9,152.36l-2.287.108-39.042,1.852.607-10.836c1.634,1.078,6.155,3.921,8.912,3.729,11.89-.761,27.236-5.133,30.98-6.225l.692,9.45Z" transform="translate(37.655 40.972)"/><path class="ax" d="M220.276,450.021s-63.573,11.542-116.744-.693c-4.975-1.128-9.847-2.479-14.58-4.056,0,0,14.181-159.323,17.943-169.864.07-.208.173-.414.259-.623,5.445-10.542,48.545-7.506,75.4-4.56h.052c12.5,1.422,21.463,2.792,21.463,2.792.018.017.018.035.035.05.678.99,11.582,17.493,11.977,53.261.435,36.944,4.194,123.69,4.194,123.69" transform="translate(25.851 77.716)"/><path class="aa" d="M118.712,129.969l7.78,15.57s9.243,10.842,28.418,9.855C174.954,154.162,183,136.728,183,136.728l2.315-17.172-4.05-12.5L115.1,114.03Z" transform="translate(33.449 31.11)"/><path class="z" d="M169.61,128.205l.168,3.685.653,21.813s-.148,15.39-19.137,16.37c-19.016.98-19.462-13.2-19.462-13.2L130.96,144.2l-.878-12.931-.2-2.968.763.081,18.6,1.967,19.043-4.028Z" transform="translate(37.745 36.709)"/><g class="az" transform="translate(167.83 162.476)"><g class="ba"><g transform="translate(0.001 0.005)"><g class="bb"><path class="af" d="M169.726,131.427l.007.589c-3.176,6.581-13.084,19.855-38.814,12.3l-.879-12.932.559-2.883,18.6,1.968,20.243-4.583Z" transform="translate(-130.041 -125.896)"/></g></g></g></g><path class="ag" d="M164.454,111.756s4.965-13.51,13.729-10.743.271,25.206-13.2,21.138Z" transform="translate(47.791 29.247)"/><path class="ap" d="M175.408,105.744c-6.15.234-9.388,5.938-9.523,6.183a.515.515,0,0,0,.9.5,13.381,13.381,0,0,1,3.494-3.8c2.186,1.276,1.284,4.916,1.275,4.955a.512.512,0,0,0,.363.625.471.471,0,0,0,.159.019.512.512,0,0,0,.468-.381c.048-.178,1-4.007-1.332-5.818a9.01,9.01,0,0,1,4.072-1.247h.157a.508.508,0,0,0,.5-.516h0v-.017a.513.513,0,0,0-.53-.5" transform="translate(48.19 30.73)"/><path class="ap" d="M113.86,108.816c6.142-.4,9.947,4.942,10.107,5.171a.514.514,0,0,1-.83.607l-.013-.019a13.369,13.369,0,0,0-3.863-3.421c-2.048,1.493-.774,5.02-.763,5.057a.513.513,0,0,1-.3.661.451.451,0,0,1-.154.035.514.514,0,0,1-.508-.327c-.065-.172-1.4-3.881.73-5.921a9.024,9.024,0,0,0-4.18-.822l-.157.012a.509.509,0,0,1-.545-.472v-.006a.515.515,0,0,1,.479-.545" transform="translate(32.952 31.617)"/><path class="z" d="M179.612,113.855c1.245,24.164-10.961,44.436-27.263,45.276s-30.532-18.068-31.777-42.235,10.961-44.434,27.265-45.276,30.525,18.075,31.771,42.235" transform="translate(35.013 20.806)"/><path class="aa" d="M145.135,123.089h-.187c-.777-.027-2.624-.594-3.055-5.227a39.631,39.631,0,0,1,.35-12.017.514.514,0,1,1,1,.245,39.478,39.478,0,0,0-.327,11.675c.288,3.119,1.257,4.26,2.069,4.29,1.189.058,2.866-2.056,3.445-5.526a.514.514,0,0,1,1.014.17c-.607,3.65-2.4,6.284-4.308,6.382" transform="translate(41.148 30.645)"/><path class="aa" d="M147.825,127.276c-7.806.4-12.814-5.347-13.02-5.6a.513.513,0,0,1,.78-.666c.049.054,4.9,5.609,12.187,5.233a13.128,13.128,0,0,0,10.5-6.354.514.514,0,0,1,.91.479,13.959,13.959,0,0,1-11.353,6.9" transform="translate(39.14 34.764)"/><path class="aa" d="M156.567,97.177a7.639,7.639,0,0,0-5.988.327,1.543,1.543,0,0,1-1.181-2.85,10.584,10.584,0,0,1,8.4-.308c3.952,1.674,5.552,7.523,4.764,7.839-.16.065-3.267-3.863-5.988-5.009" transform="translate(43.151 27.207)"/><path class="aa" d="M127.065,104.055c-.821-.228.172-6.207,3.931-8.286a10.575,10.575,0,0,1,8.385-.552,1.542,1.542,0,0,1-.817,2.974l-.065-.019a7.62,7.62,0,0,0-6.013.3c-2.6,1.431-5.258,5.628-5.422,5.583" transform="translate(36.849 27.492)"/><path class="aa" d="M135.3,102.509l-4.975.435s.845,1.476,3.794,1.649a20.844,20.844,0,0,0-.292,5.107c.2,3.92,1.189,7.06,2.206,7.005s1.673-3.272,1.471-7.19-1.189-7.058-2.206-7.007" transform="translate(37.873 29.79)"/><path class="aa" d="M157.648,101.516l-5,.075c-1.014.053-1.674,3.273-1.471,7.194s1.189,7.061,2.206,7.008,1.676-3.276,1.473-7.2a20.62,20.62,0,0,0-.818-5.05c2.918-.476,3.607-2.031,3.607-2.031" transform="translate(43.924 29.501)"/><path class="aa" d="M159.115,82.023s-7.294.591-12.78,11.5-10.188,18.531-20.952,19.084c0,0-.145,34.524,6.338,49.23,0,0-19.7-10.707-22.084-41.159s17.017-72.3,50.637-54.848c0,0,6.1-6.315,19,2.4,7.386,5.279,38.687,46.685,1.054,88.218,0,0,4.583-38.277-1.9-54.62,0,0-17.612,1.3-19.318-19.8" transform="translate(31.805 17.935)"/><path class="ax" d="M190.764,70.011l-1.976,3.3-2.341,3.936L183.9,81.51c-23.856-8.932-40.67-8.932-62.181-2.431l-.3-.747-1.553-3.987-1.646-4.265-1.127-2.91s-1.2-1.042,3.365-7.127c8.839-11.72,41.554-14.91,59.133-3.97a26.52,26.52,0,0,1,4.138,3.085c7.731,7.022,7.022,10.854,7.022,10.854" transform="translate(33.987 14.342)"/><path class="ay" d="M188.5,69.75l-2.341,3.941C155,60.7,128.43,67.7,119.586,70.783l-1.646-4.247c10.016-3.5,37.706-10.542,70.556,3.217" transform="translate(34.275 17.901)"/><g class="v" transform="translate(155.404 70.415)"><g class="bc"><g transform="translate(0.001 -0.001)"><g class="bd"><path class="y" d="M189.758,68.5l-1.976,3.3L185.44,75.73l-2.549,4.26c-23.856-8.928-40.67-8.928-62.185-2.428l-.294-.747c2.355-.589,5.166-1.23,8.478-1.9,26.211-5.373,41.641-14.23,49.7-20.349a26.486,26.486,0,0,1,4.143,3.085c7.731,7.022,7.022,10.854,7.022,10.854" transform="translate(-120.412 -54.558)"/></g></g></g></g><path class="ax" d="M204.726,317.619a18.6,18.6,0,0,1-.816,9.1s-10.107-.435-23.836-1.283c-1.613-.108-3.278-.208-4.992-.326-29.2-1.959-70.024-5.686-69.832-11.324.017-.693.05-1.438.05-2.2.108-4.666.485-10.436.955-16.556v-.041c1.334-17.49,3.4-37.844,2.2-43.443-.989-4.735-3.207-9.31-5.547-14.078a1.878,1.878,0,0,0-.108-.192.27.27,0,0,0-.035-.085,100.385,100.385,0,0,1-5.062-11.53.053.053,0,0,0-.019-.035c-.208-.572-.4-1.178-.573-1.768v-.018a37.609,37.609,0,0,1-1.749-12.933c0-11.042,24.7-53.656,25.26-54.418v-.017l.019-.021c2.789-1.491,10.869-5.077,13.851-6.43.137-.067.259-.121.364-.174,3.536-1.613,4.663-6.725,4.663-6.725l.607.417c1.633,1.072,6.154,3.918,8.91,3.727,11.894-.763,27.237-5.134,30.981-6.225.554-.176.849-.262.849-.262a13.44,13.44,0,0,0,3.365,5.324,12.7,12.7,0,0,0,4.143,2.688,103.458,103.458,0,0,1,22.176,13.4l.036.052a18.731,18.731,0,0,1,4.629,5.445,9.706,9.706,0,0,1,.8,1.993c3.606,6.138-8.274,18.9-14.166,37.517a79.945,79.945,0,0,0-2.963,13.3c-.108.693-.208,1.387-.277,2.1a.385.385,0,0,1-.019.138c-.346,2.81-.589,5.7-.745,8.684-.068,1.058-.108,2.132-.139,3.227a2.482,2.482,0,0,0-.015.31.375.375,0,0,0-.019.141c-.108,3.361-7.975,14.544-7.212,34.308.018.449.035.919.068,1.386,0,.11.019.209.019.314.052.832.12,1.7.208,2.566.035.485.086.973.155,1.473.121.987.259,1.994.417,3.034.07.519.173,1.058.259,1.6.191,1.04.4,2.1.641,3.171q.523,2.449,1.248,5.028.467,1.715,1.04,3.485c.208.712.45,1.422.711,2.15q.364,1.09.78,2.186c.414,1.1-.017.016,0,.016.279.729.556,1.475.849,2.22.871,2.253,1.874,4.573,2.981,6.952.364.778.747,1.594,1.146,2.4s.816,1.634,1.23,2.446c.019.017.019.035.037.05a24.024,24.024,0,0,1,2.478,7.75" transform="translate(27.704 40.911)"/><g class="v" transform="translate(122.157 217.21)"><g class="be"><g transform="translate(-0.001)"><g class="bf"><path class="y" d="M105.547,234.6s-12.261-20.308-7.892-31.4,19.434-34.9,19.434-34.9S95.53,194.217,94.7,206.128c-.536,7.622,3.984,25.021,3.984,25.021Z" transform="translate(-94.648 -168.3)"/></g></g></g></g><g class="v" transform="translate(129.381 234.464)"><g class="bg"><g class="bh"><path class="y" d="M216.993,474.942s-63.573,11.542-116.744-.693c47.294-18.707,73.784-69.814,78.4-160.692q.467-8.946.622-18.412c.487-26.837,9.434-80.206,6.468-113.474l11.716,26.948c-.068,1.16-1.16,13.262-1.2,14.459a.388.388,0,0,0-.018.139c-.174,5.2-18.946,29.195,4.542,74.72.018.017.018.035.035.05.678.99,11.582,17.493,11.977,53.261.435,36.944,4.194,123.69,4.194,123.69" transform="translate(-100.249 -181.67)"/></g></g></g><path class="z" d="M172.333,256.149c-2.2-.56-7.155,2.461-7.155,2.461S155.07,266.1,154.086,268.3c-2.2,2.732-3.019,6.777,1.306,5.117,5.779-3.661,9.21-6.887,11.919-8.5a7.546,7.546,0,0,1,5.846-.488,32.177,32.177,0,0,0-5.271,1.7c-2.146.987-13.284,13.631-13.435,15.9s4.154,2.732,6.706-.367c0,0-2.208,3.252-1.729,4.573s2.02,1.457,5.846-2.253c0,0-.831,3.188.436,4.015,2.89,1.306,9.882-7.606,10.817-7.9s10.853,8.652,22.81.814c0,0-7.914-20.687-27-24.772" transform="translate(44.256 107.704)"/><g class="ac" transform="translate(205.52 378.193)"><g class="bi"><g class="bj"><path class="ap" d="M169.084,267.253c.195.178-1.851,2.722-4.56,5.686s-5.071,5.218-5.268,5.039,1.851-2.722,4.56-5.686,5.073-5.218,5.268-5.039" transform="translate(-159.243 -267.244)"/></g></g></g><g class="ac" transform="translate(209.559 383.09)"><g class="bk"><g transform="translate(0.001)"><g class="bk"><path class="ap" d="M170.456,271.052c.195.178-1.452,2.295-3.681,4.726s-4.192,4.258-4.387,4.08,1.452-2.3,3.68-4.728,4.193-4.256,4.388-4.078" transform="translate(-162.373 -271.039)"/></g></g></g></g><path class="ay" d="M175.414,146.107a30.533,30.533,0,0,1-3.521,4.385c-.675.71-19.329,8.623-36.64,6.608-2.16-.25-6.96,0-9.581-7.078.139-.068.261-.121.363-.174,3.539-1.613,4.667-6.727,4.667-6.727s.223.155.605.417c1.634,1.074,6.155,3.92,8.909,3.726,11.893-.763,27.238-5.13,30.982-6.223.555-.174.848-.261.848-.261a13.449,13.449,0,0,0,3.365,5.322" transform="translate(36.522 40.912)"/><path class="ag" d="M183.146,297.182s44.485-39.862,44.969-40.939-57.345-59.423-57.345-59.423-2.216-30.947,12.674-37.073c0,0,66.6,81.14,72.757,93.469s-42.423,46.6-62.2,55.7Z" transform="translate(49.593 46.424)"/><path class="ax" d="M172.424,166.822l5.3-10.77a22.027,22.027,0,0,1,14.734,5.781c7.186,6.287,14.231,13.4,34.025,39.325L194.42,233.071,180.529,220.2s-20.722-25.634-8.1-53.378" transform="translate(48.924 45.349)"/><path class="bl" d="M142.881,144.884l-1.1,8.9s-31.206,48.656-25.427,79.854c0,0,12.572,16.876,6.056,38.242C117.616,287.607,95.535,487.04,102.5,485.494" transform="translate(29.396 42.104)"/><path class="bm" d="M154.376,180.753c5.839.181,9.647,5.151,8.51,11.106s-6.787,10.627-12.63,10.446-9.647-5.151-8.51-11.106,6.787-10.627,12.63-10.446" transform="translate(41.134 52.526)"/><path class="bn" d="M150.744,184.482l-.907,3.877-3.776-.286-.909,3.878,3.778.288-.907,3.877,3.778.286.906-3.877,3.776.289.91-3.88-3.778-.287.907-3.877Z" transform="translate(42.183 53.611)"/><rect class="ay" width="50.649" height="12.106" transform="translate(237.899 275.78) rotate(-45)"/><path class="bo" d="M320.034,296.353,326,398.676l-129.476,2.261,9.323-104.584Z" transform="translate(57.111 86.122)"/><path class="bp" d="M258.993,325.016c-42.91,0-56.408-10.065-56.408-10.065l1.658-18.6H309.759L311,317.589s-9.092,7.422-52,7.422" transform="translate(58.873 86.123)"/><path class="bq" d="M203.637,339.4c.4.385,2.441,10.733,3.361,11.224,8.281,4.453,33.037,10.117,58.824,10.1,26.433-.013,35.341,1.071,56.057-8.377.893-.408,4.3-9.356,5.381-11.165,0,0-6.425-51.015-.17-84.629l2.545-7.134,22.908-64.21s-42.27-41.578-86-46.858c-43.009,7.657-87.449,46.6-87.449,46.6L206,256.555c6.254,33.614-2.368,82.844-2.368,82.844" transform="translate(52.048 40.206)"/><rect class="br" width="2.055" height="108.163" transform="translate(320.95 292.747)"/><path class="z" d="M225.528,152.46s7.637,15.534,29.261,16.343c21.646.832,29.138-16.81,29.138-16.81l-.281-6.241-1.047-22.29-26.785,3.211L227.885,122.7l-.763,9.539Z" transform="translate(65.539 35.658)"/><g class="ac" transform="translate(292.663 158.352)"><g class="bs"><g transform="translate(0 0.004)"><g class="bt"><path class="bu" d="M226.763,132.239c6.756,10.206,25.2,30.319,56.305,8.9l-.829-17.679-26.785,3.211-27.929-3.97Z" transform="translate(-226.763 -122.698)"/></g></g></g></g><path class="bv" d="M258.354,160.395a21.731,21.731,0,0,0-16.884-.467l8.384,19.9a53.889,53.889,0,0,0,8.5-19.434" transform="translate(70.173 46.045)"/><path class="bv" d="M237.386,309l13.67,19.2,15.135-18.734L254.722,170.413l-6.408-.435Z" transform="translate(68.986 49.397)"/><path class="bw" d="M292.176,147.523l-7.061-9.043L256.4,164.38l-28.826-26.457-7.564,9.593L237.068,184,256.4,164.38,274.847,184Z" transform="translate(63.935 40.081)"/><path class="bm" d="M276.879,141.208c2.9,1.926,5.686,3.855,8.35,5.733,28.76,20.339,43.723,37.446,43.723,37.446l-22.907,64.206-2.546,7.136c-6.258,33.614,36.634,299.026,36.634,299.026-1.094,1.808-35.777,23.835-59.923,23.788,0,0-19.841-217.221-19.935-262.516-.071-26.429.5-49.287,1.475-68.938,2-70.135,15.135-105.884,15.135-105.884" transform="translate(75.636 41.035)"/><path class="bm" d="M254.782,245.121c.98,19.649,1.546,42.511,1.475,68.942-.1,45.3-29.255,265.05-29.255,265.05-24.146.045-54.883-26.656-55.977-28.466,0,0,48.266-263.278,42.01-296.892l-2.548-7.136L181.44,184.693a557.982,557.982,0,0,1,49.869-39.721c2.663-1.88,5.444-3.811,8.35-5.735,0,0,12.085,42.682,15.134,105.884" transform="translate(49.702 40.463)"/><path class="bx" d="M291.821,184.835l-11.68-15.461,17.032,3.286L284.9,146.94c-2.663-1.88-5.444-3.81-8.348-5.733,0,0-13.572,37.129-15.135,105.883Z" transform="translate(75.969 41.036)"/><path class="bx" d="M213.575,182.866,225.256,167.4l-17.033,3.285L220.5,144.971c2.664-1.878,5.444-3.81,8.348-5.733,0,0,13.757,33.979,15.136,105.884Z" transform="translate(60.512 40.463)"/><g class="v" transform="translate(335.904 317.156)"><g class="by"><g transform="translate(0 -0.001)"><g class="bz"><path class="ca" d="M260.858,293.088h-.444c-.088-2.824-.136-5.328-.139-7.434-.035-12.605.08-24.373.314-35.387,11.968-.941,23.912-2.419,35.81-4,.5-.025,1.577-.108,3.5-.27,1.088-.092,2.185-.169,3.277-.252.5,10.373,1.644,23.621,3.22,38.676-.395.257-.774.545-1.183.782-6.316,3.752-41.644,7.847-44.35,7.891" transform="translate(-260.268 -245.74)"/></g></g></g></g><g class="v" transform="translate(258.994 317.503)"><g class="cb"><g transform="translate(0 0.003)"><g class="cc"><path class="ca" d="M247.357,292.283c-1.26-.079-2.519-.157-3.779-.263-.272-.026-.924-.088-1.691-.163-1.454-.234-4.225-.635-4.9-.761a296.47,296.47,0,0,1-33.318-8.53c-.994-.307-1.99-.568-2.985-.805,1.678-13.66,2.962-25.862,3.669-35.751a217.882,217.882,0,0,0,26.794,4.125c5.419.545,10.84.863,16.259,1,.185,10.018.276,20.611.247,31.9,0,2.546-.108,5.668-.287,9.255" transform="translate(-200.675 -246.014)"/></g></g></g></g><path class="z" d="M275.932,103.8s7.366-17.24,18.581-13.056-1.34,32.81-18.581,26.615Z" transform="translate(80.188 26.179)"/><path class="aa" d="M290.516,96.729c-8.016-.108-12.609,7.1-12.8,7.4a.668.668,0,0,0,.217.919h0a.656.656,0,0,0,.355.108.669.669,0,0,0,.568-.316,17.5,17.5,0,0,1,4.8-4.708c2.763,1.8,1.345,6.476,1.327,6.533a.672.672,0,0,0,.435.84.647.647,0,0,0,.2.031.664.664,0,0,0,.638-.462c.075-.228,1.567-5.146-1.345-7.657a11.7,11.7,0,0,1,5.379-1.349h.209a.662.662,0,0,0,.68-.641v-.012a.669.669,0,0,0-.653-.683" transform="translate(80.676 28.109)"/><path class="z" d="M226.835,103.8v13.551c-11.461,4.129-20.864-7.177-22.58-16.417-.857-4.659.241-8.785,3.991-10.2,7.926-2.94,13.9,4.768,16.739,9.562a32.242,32.242,0,0,1,1.851,3.508" transform="translate(59.279 26.177)"/><path class="aa" d="M210.156,96.73c8.016-.108,12.609,7.1,12.8,7.4a.67.67,0,0,1-1.094.773l-.012-.018a.351.351,0,0,1-.03-.046,17.421,17.421,0,0,0-4.8-4.711c-2.763,1.807-1.345,6.478-1.328,6.532a.67.67,0,0,1-.436.84.642.642,0,0,1-.2.032.669.669,0,0,1-.636-.462c-.075-.228-1.567-5.146,1.345-7.66a11.731,11.731,0,0,0-5.382-1.346h-.207a.659.659,0,0,1-.68-.639v-.015a.666.666,0,0,1,.653-.681" transform="translate(60.881 28.11)"/><path class="z" d="M296.334,107.275a76.471,76.471,0,0,1-7.755,34.351c-4.425,8.712-10.516,17.841-17.529,21.647-2.19,1.167-8.066,1.785-13.68,1.833-5.044.048-9.92-.379-11.729-1.285-7.164-3.545-13.372-12.466-17.961-21.029a75.642,75.642,0,0,1-8.372-35.5c0-10.308-3.229-22.715,0-31.067,6.643-17.179,24.2-26.022,38.513-26.022,12.625,0,30.128,6.968,37.153,20.868,4.811,9.525,1.363,23.388,1.363,36.2" transform="translate(63.316 14.59)"/><path class="aa" d="M239.739,99.162c0,5.117-1.074,9.261-2.4,9.261s-2.4-4.145-2.4-9.261,1.075-9.261,2.4-9.261,2.4,4.145,2.4,9.261" transform="translate(68.278 26.126)"/><path class="aa" d="M263.786,99.161c0,5.116-1.075,9.26-2.4,9.26s-2.4-4.145-2.4-9.26,1.074-9.261,2.4-9.261,2.4,4.145,2.4,9.261" transform="translate(75.265 26.126)"/><path class="aa" d="M249.99,117.385a1.953,1.953,0,0,1-.245-.012c-1.007-.088-3.375-.946-3.625-7-.41-9.908,1.2-15.378,1.263-15.607a.67.67,0,0,1,1.283.383c-.018.056-1.608,5.516-1.207,15.168.166,4.077,1.35,5.626,2.4,5.719,1.538.154,3.867-2.482,4.849-6.958a.669.669,0,1,1,1.32.222.356.356,0,0,1-.014.065c-1.032,4.709-3.54,8.016-6.03,8.016" transform="translate(71.505 27.405)"/><path class="aa" d="M252.79,126.246c-9.392,0-15.039-7.208-15.276-7.514a.618.618,0,1,1,.952-.789l.027.036c.054.07,5.529,7.034,14.3,7.034a15.768,15.768,0,0,0,12.985-6.969.618.618,0,0,1,1.061.632,16.778,16.778,0,0,1-14.046,7.577" transform="translate(68.982 34.21)"/><path class="aa" d="M273.754,93.581a2.007,2.007,0,0,1-1.9-1.363,10.889,10.889,0,0,0-4.917-5.662,9.953,9.953,0,0,0-7.815.027,2.009,2.009,0,0,1-1.346-3.787c4.065-1.447,7.75-1.393,10.947.159a14.86,14.86,0,0,1,6.934,7.972,2.006,2.006,0,0,1-1.254,2.545h-.008a1.942,1.942,0,0,1-.641.11" transform="translate(74.522 23.757)"/><path class="aa" d="M228.672,93.579a1.954,1.954,0,0,1-.639-.108,2,2,0,0,1-1.266-2.537h0a14.857,14.857,0,0,1,6.936-7.972c3.192-1.553,6.87-1.606,10.944-.157a2.009,2.009,0,1,1-1.347,3.785c-3.014-1.074-5.654-1.076-7.839-.014a10.934,10.934,0,0,0-4.885,5.636,2.006,2.006,0,0,1-1.9,1.369" transform="translate(65.871 23.758)"/><path class="aa" d="M283.7,123.736s-3.983-3.912-6.133-4.766c-3.921-1.559-36.585-1.178-39.549,0-2.15.856-6.133,4.766-6.133,4.766-6.381.039-12.9-29.289-12.9-29.289a75.635,75.635,0,0,0,8.373,35.5c4.592,8.563,10.8,17.485,17.96,21.028,1.647.825,5.84,1.248,10.384,1.283h1.345c4.971-.03,11.563-.461,13.217-1.287,7.159-3.543,13.368-12.466,17.965-21.029a75.627,75.627,0,0,0,8.373-35.5s-6.518,29.332-12.9,29.29m-25.914,13.535s-3.35,9.967-5.053,9.581c-9.941-2.229-16.858-10.336-16.858-16.913,0-7.7,9.656-9.2,22.38-9.2s22.1,1.549,22.1,9.255c0,6.549-6.9,14.575-16.778,16.837-1.742.4-5.787-9.56-5.787-9.56" transform="translate(63.638 27.445)"/><path class="aa" d="M266.317,44.2s34.624-8.1,17.421,66.128c-.253,1.089-.572-1.233-.572-1.233s-.419-22.671-5.745-29.61S263.177,67.2,263.177,61.249s3.14-17.049,3.14-17.049" transform="translate(76.481 12.77)"/><path class="aa" d="M221.779,89.839s37.456,3.122,59.241-19.772l8.359-6.594s-10.178-33-31.82-26.266C237.829,43.349,214.9,45.1,212.91,70.416c-2.259,28.746,8.256,48.355,8.256,48.355Z" transform="translate(61.781 10.549)"/><path class="z" d="M244.858,225s-21.327-.352-25.793.8c-6.751,2.141-15.353,10.561-16.8,11.766-2.674,3.14-5.3,12.1-4.893,14.577-.476,3.664,1.271,7.671,4.538,3.652,3.387-6.5,6.323-14.069,6.323-14.069l7.621-6.068a84.642,84.642,0,0,0-6.315,6.771c-1.449,2.031-4.4,19.319-3.1,21.374s5.785-.152,6.3-4.331c0,0-.092,4.1,1.2,4.952s2.856.035,4.183-5.4c0,0,1.2,3.2,2.9,3.152,3.518-.6,4.5-12.079,5.18-12.848s11.7,3.023,17.43-9.8c6.653-10.943,1.235-14.532,1.235-14.532" transform="translate(57.334 65.372)"/><path class="cd" d="M209.254,254.7a40.314,40.314,0,0,1,.591-6.836,25.605,25.605,0,0,1,1.866-6.476,134.986,134.986,0,0,1-2.457,13.313" transform="translate(60.811 70.148)"/><path class="cd" d="M213.426,253.773a26.562,26.562,0,0,1,.653-5.573,18.846,18.846,0,0,1,1.869-5.18,78.941,78.941,0,0,1-2.518,10.752" transform="translate(62.023 70.623)"/><path class="ag" d="M210.094,280.156c.6-.094,1.177-.218,1.772-.346,17.53-3.763,95.6-31.786,95.6-31.786l-.266-4.379-.565-9.317-11.468-1.851s-26.216,2.286-64.3,9.88c-2.771.3-5.444.689-8.037,1.158-17.679,3.176-31.244,9.834-37.737,16.721a14.384,14.384,0,0,0-4.076,7.128c-1.7,9.772,12.092,15.855,29.071,12.786" transform="translate(52.564 67.559)"/><path class="ag" d="M334.558,206.341c-2.733,34.752-6.555,48.026-24.172,84.275-7.593,3.157-21.427-1.715-27.4-16.209,3.483-18.463,6.174-41.568,11.621-61.043,10.61-29.181,27.744-38.705,27.744-38.705s11.745,13.315,12.205,31.678" transform="translate(82.238 50.757)"/><path class="ag" d="M224.415,224.949l13.758.018s19.968,5.313,52.415,16.888c24.181,6.04,39.4,19.667,39.083,29.308-.327,9.859-14.4,14.226-29.283,8.749-14.766-5.435-78.613-42.689-78.613-42.689Z" transform="translate(64.451 65.372)"/><path class="bm" d="M323.98,302.369c2.561-1.727,8.493-62.331,11.186-96.989-.479-18.318-13.12-30.718-13.12-30.718s-17.1,8.349-27.689,37.437a457.924,457.924,0,0,0-10.318,47.255" transform="translate(82.544 50.757)"/><g class="v" transform="translate(366.581 242.82)"><g class="ce"><g class="ce"><path class="y" d="M300.568,188.144s-7.4,63.342-1,70.826,5.266,13.828,5.266,13.828l-20.8-19.11Z" transform="translate(-284.037 -188.144)"/></g></g></g><path class="z" d="M264.848,250.708s7.242-22.3,10-26.624c4.587-6.355,16.462-12.086,18.216-13.132,4.173-1.542,14.309-.712,16.715.684,3.873.942,7.36,4.278,2.287,6.085-7.731,1-16.551,1.122-16.551,1.122l-10.018,6.346s7.737-3.987,10.329-4.716,21.215,2.811,22.866,4.9-1.96,5.852-6.328,4.85c0,0,4.157,1.416,4.6,3.05s-.86,2.928-6.751,2.328c0,0,2.856,2.385,2.277,4.118-1.71,3.4-13.185.653-14.2,1.082s-1.23,12.934-16.659,14.5c-14.154,3.274-16.78-4.586-16.78-4.586" transform="translate(76.967 61.062)"/><g class="ac" transform="translate(341.146 299.411)"><g class="cf"><g transform="translate(0.005)"><g class="cg"><path class="ap" d="M294.854,231.993c.843.157,10.486,2.874,17.786,1.365-1.809,3.549-13.251.675-14.2,1.082-1.866,1.28-.327,11.834-15.243,13.729-5.266,1.314-16.383-5.357-18.867-6.13,21.393.157,26.47,3.779,30.52-10.046" transform="translate(-264.335 -231.993)"/></g></g></g></g><g class="ac" transform="translate(375.959 288.741)"><g class="ch"><g transform="translate(0 0)"><g class="ch"><path class="ap" d="M304.946,225.991a45.413,45.413,0,0,0-6.765-1.715,28.488,28.488,0,0,0-6.874-.492c4.557.829,9.028,1.8,13.64,2.208" transform="translate(-291.303 -223.718)"/></g></g></g></g><g class="ac" transform="translate(375.722 294.829)"><g class="ci"><g transform="translate(0.004)"><g class="cj"><path class="ap" d="M302.367,229.881a29.848,29.848,0,0,0-5.6-1.233,20.8,20.8,0,0,0-5.641-.021,87.946,87.946,0,0,0,11.245,1.253" transform="translate(-291.125 -228.442)"/></g></g></g></g><path class="bm" d="M210.865,245.418a178.672,178.672,0,0,1,19.622-4.73c37.975-7.538,63.211-11.316,63.211-11.316,8.357,7.566,11.759,26.035,12.752,37.819,0,0-122.244,27.5-125.233,26.486" transform="translate(52.664 66.656)"/><path class="bm" d="M167.073,206.3c.351,35.862,15.267,102.323,18.249,103.33l31.456-48.8c-.023-.218-.044-.435-.067-.653a428.018,428.018,0,0,0-7.94-47.159c-.92-3.048-1.929-5.879-2.981-8.492-9.325-22.921-23.184-30.071-23.184-30.071s-13.666,12.9-15.53,31.848" transform="translate(48.553 50.697)"/><g class="v" transform="translate(215.408 257.005)"><g class="ck"><g class="cl"><path class="y" d="M195.341,290.648c5.757,5.378,49.351-6.221,115.268-14.666,0,0-122.244,27.5-125.23,26.485s-17.915-67.477-18.256-103.33c-2.86,7.138,23.359,93.032,28.218,91.512" transform="translate(-166.905 -199.135)"/></g></g></g><path class="bm" d="M343.578,287.992C323.2,297.22,216.6,242.927,216.6,242.927c1.7-11.271,7.44-16.178,15.578-18.793,0,0,13.143-.307,52.751,13.828,7.279,2.6,24.1,8.241,30.1,13.435s28.548,36.593,28.548,36.593" transform="translate(62.946 65.134)"/><g class="v" transform="translate(279.546 252.953)"><g class="cm"><g transform="translate(-0.001 0)"><g class="cn"><path class="y" d="M339.942,275.428c10.592-29.088,14.344-94.564,14.823-76.246-2.688,34.659-8.623,95.262-11.186,96.989C323.2,305.4,216.6,251.1,216.6,251.1c8.354-4.491,115.973,46.808,123.341,24.324" transform="translate(-216.6 -195.995)"/></g></g></g></g><g class="v" transform="translate(241.334 255.213)"><g class="co"><g transform="translate(0.001 0.005)"><g class="cp"><path class="y" d="M187.034,273.454c-1-.666,17.085-19.133,23.954-19.4a440.959,440.959,0,0,0-8-47.818c-.924-3.048-1.931-5.879-2.985-8.492.653,21.583,8.155,52.1,4.219,53.461-14.324,4.961-17.182,22.236-17.182,22.236" transform="translate(-186.994 -197.752)"/></g></g></g></g><rect class="b" width="654.383" height="395.883"/></g></g></g></g></svg>