<svg xmlns="http://www.w3.org/2000/svg" width="37" height="37" viewBox="0 0 37 37"><defs><style>.a{fill:#2584c6;}</style></defs><path class="a" d="M18.5,2.168a16.325,16.325,0,1,1-6.359,1.283A16.336,16.336,0,0,1,18.5,2.168M18.5,0A18.5,18.5,0,1,0,37,18.5,18.5,18.5,0,0,0,18.5,0Z"/><path class="a" d="M135.431,149.026a2.739,2.739,0,0,0-3.874,0l-8.162,8.161-2.72-2.72a2.739,2.739,0,1,0-3.874,3.873L121.458,163a2.739,2.739,0,0,0,3.874,0l10.1-10.1A2.739,2.739,0,0,0,135.431,149.026Z" transform="translate(-107.616 -137.512)"/></svg>