<svg xmlns="http://www.w3.org/2000/svg" width="34.851" height="24.505" viewBox="0 0 34.851 24.505"><defs><style>.a{fill:#043e76;}</style></defs><g transform="translate(0 0)"><path class="a" d="M31.788,76H3.063A3.068,3.068,0,0,0,0,79.063V97.442A3.068,3.068,0,0,0,3.063,100.5H31.788a3.067,3.067,0,0,0,3.063-3.063V79.063A3.066,3.066,0,0,0,31.788,76Zm-.429,2.042L19.592,89.748a3.063,3.063,0,0,1-4.334,0L3.492,78.042ZM2.042,97.026V79.48l8.824,8.778Zm1.451,1.437L12.314,89.7l1.5,1.494a5.105,5.105,0,0,0,7.218,0l1.5-1.5,8.821,8.765Zm29.316-1.437-8.824-8.768,8.824-8.778Z" transform="translate(0 -76)"/></g></svg>