<svg xmlns="http://www.w3.org/2000/svg" width="34.576" height="34.576" viewBox="0 0 34.576 34.576"><defs><style>.a{fill:#043e76;}</style></defs><path class="a" d="M26.81,7.9h-5.2V6.078h3.039a3.039,3.039,0,0,0,0-6.078H19.584V7.9H7.766A7.775,7.775,0,0,0,0,15.667V27.485H12.223v7.091H23.7V27.485H34.576V15.667A7.775,7.775,0,0,0,26.81,7.9Zm-5.2-5.875h3.039a1.013,1.013,0,1,1,0,2.026H21.61ZM20.6,18.1a1.013,1.013,0,1,1-1.013,1.013A1.014,1.014,0,0,1,20.6,18.1Zm-7.091,7.361H2.026V15.667a5.74,5.74,0,1,1,11.48,0Zm2.769,7.091H14.249V27.485h2.026Zm5.4,0H18.3V27.485h3.377ZM32.55,25.459H15.532V15.667a7.748,7.748,0,0,0-2.541-5.74h6.593v6.32a3.039,3.039,0,1,0,2.026,0V9.927h5.2a5.747,5.747,0,0,1,5.74,5.74Z"/></svg>