<svg xmlns="http://www.w3.org/2000/svg" width="18" height="17.963" viewBox="0 0 18 17.963"><defs><style>.a{fill:#4097d8;}</style></defs><g transform="translate(-0.934 0.741)"><path class="a" d="M16.394,15.891a2.06,2.06,0,0,0-2.918,0l-1,1a17.948,17.948,0,0,1-3.1-2.486A18.277,18.277,0,0,1,6.9,11.3l1-1a2.06,2.06,0,0,0,0-2.918L5.95,5.454A2.012,2.012,0,0,0,4.5,4.85a2.06,2.06,0,0,0-1.462.6l-.934.927a4.374,4.374,0,0,0-1.126,3.6c.22,2.575,1.909,5.671,4.511,8.281S11.224,22.558,13.8,22.8a5.406,5.406,0,0,0,.577,0A4.168,4.168,0,0,0,17.4,21.679l.927-.934a2.06,2.06,0,0,0,.6-1.462,2.012,2.012,0,0,0-.6-1.449Zm.968,3.886-.934.927a3.138,3.138,0,0,1-2.513.687c-2.231-.192-5.074-1.771-7.422-4.12s-3.927-5.17-4.14-7.4a3.11,3.11,0,0,1,.687-2.513l.968-.934a.7.7,0,0,1,.975,0L6.925,8.386a.687.687,0,0,1,0,.968L5.552,10.727a.687.687,0,0,0-.11.831,18.875,18.875,0,0,0,2.973,3.831,18.875,18.875,0,0,0,3.831,2.973.687.687,0,0,0,.831-.11l1.373-1.373a.687.687,0,0,1,.968,0l1.943,1.943a.671.671,0,0,1,0,.954Z" transform="translate(0 -5.59)"/></g></svg>