<svg xmlns="http://www.w3.org/2000/svg" width="34.576" height="32.415" viewBox="0 0 34.576 32.415"><defs><style>.a{fill:#043e76;}</style></defs><path class="a" d="M31.174,11.483H30.093V7.161A2.163,2.163,0,0,0,27.932,5H10.644A2.163,2.163,0,0,0,8.483,7.161v4.322H7.4a5.409,5.409,0,0,0-5.4,5.4V27.691a3.245,3.245,0,0,0,3.242,3.242H8.483v4.322a2.163,2.163,0,0,0,2.161,2.161H27.932a2.163,2.163,0,0,0,2.161-2.161V30.932h3.242a3.245,3.245,0,0,0,3.242-3.242V16.886A5.409,5.409,0,0,0,31.174,11.483ZM10.644,7.161H27.932v4.322H10.644Zm0,28.093V24.449H27.932V35.254Zm23.771-7.564a1.082,1.082,0,0,1-1.081,1.081H30.093V24.449h1.081a1.081,1.081,0,0,0,0-2.161H7.4a1.081,1.081,0,0,0,0,2.161H8.483v4.322H5.242a1.082,1.082,0,0,1-1.081-1.081V16.886A3.245,3.245,0,0,1,7.4,13.644H31.174a3.245,3.245,0,0,1,3.242,3.242Zm-9.725,0a1.08,1.08,0,0,1-1.081,1.081H14.966a1.081,1.081,0,1,1,0-2.161H23.61A1.08,1.08,0,0,1,24.691,27.691Zm0,4.322a1.08,1.08,0,0,1-1.081,1.081H14.966a1.081,1.081,0,1,1,0-2.161H23.61A1.08,1.08,0,0,1,24.691,32.013Zm7.564-15.127a1.08,1.08,0,0,1-1.081,1.081H29.013a1.081,1.081,0,0,1,0-2.161h2.161A1.08,1.08,0,0,1,32.254,16.886Z" transform="translate(-2 -5)"/></svg>