<svg xmlns="http://www.w3.org/2000/svg" width="115.514" height="135.514" viewBox="0 0 115.514 135.514"><defs><style>.a {
  fill: #4097d8;
}

</style></defs><g transform="translate(-20)"><path class="a" d="M124.221,0H31.293A11.306,11.306,0,0,0,20,11.293V124.221a11.306,11.306,0,0,0,11.293,11.293h92.928a11.306,11.306,0,0,0,11.293-11.293V11.293A11.306,11.306,0,0,0,124.221,0ZM31.293,4.517h92.928A6.784,6.784,0,0,1,131,11.293v6.776H24.517V11.293A6.784,6.784,0,0,1,31.293,4.517ZM124.221,131H31.293a6.784,6.784,0,0,1-6.776-6.776V22.586H131V124.221A6.784,6.784,0,0,1,124.221,131Z"></path><path class="a" d="M109.894,23H30.517A4.522,4.522,0,0,0,26,27.517v6.776a4.522,4.522,0,0,0,4.517,4.517h79.377a4.522,4.522,0,0,0,4.517-4.517V27.517A4.522,4.522,0,0,0,109.894,23ZM30.517,34.293V27.517h79.377l0,6.776Z" transform="translate(7.551 28.947)"></path><path class="a" d="M109.894,14H30.517A4.522,4.522,0,0,0,26,18.517v6.776a4.522,4.522,0,0,0,4.517,4.517h79.377a4.522,4.522,0,0,0,4.517-4.517V18.517A4.522,4.522,0,0,0,109.894,14ZM30.517,25.293V18.517h79.377l0,6.776Z" transform="translate(7.551 17.62)"></path><path class="a" d="M109.894,32H30.517A4.522,4.522,0,0,0,26,36.517V59.1a4.522,4.522,0,0,0,4.517,4.517h79.377a4.522,4.522,0,0,0,4.517-4.517V36.517A4.522,4.522,0,0,0,109.894,32ZM30.517,59.1V36.517h79.377l0,22.586Z" transform="translate(7.551 40.274)"></path><path class="a" d="M64.844,48H46.776a6.776,6.776,0,0,0,0,13.551H64.844a6.776,6.776,0,0,0,0-13.551Zm0,9.034H46.776a2.259,2.259,0,0,1,0-4.517H64.844a2.259,2.259,0,0,1,0,4.517Z" transform="translate(50.343 60.411)"></path><path class="a" d="M37.776,48a6.776,6.776,0,1,0,6.776,6.776A6.784,6.784,0,0,0,37.776,48Zm0,9.034a2.259,2.259,0,1,1,2.259-2.259A2.259,2.259,0,0,1,37.776,57.034Z" transform="translate(49.016 60.411)"></path><path class="a" d="M7.259,8.517H9.517A2.259,2.259,0,1,0,9.517,4H7.259a2.259,2.259,0,0,0,0,4.517Z" transform="translate(26.293 5.034)"></path><path class="a" d="M13.259,8.517h2.259a2.259,2.259,0,0,0,0-4.517H13.259a2.259,2.259,0,1,0,0,4.517Z" transform="translate(33.844 5.034)"></path><path class="a" d="M40.259,8.517h31.62a2.259,2.259,0,0,0,0-4.517H40.259a2.259,2.259,0,0,0,0,4.517Z" transform="translate(47.826 5.034)"></path></g></svg>